<?xml version="1.0" standalone="no"?><!DOCTYPE svg PUBLIC "-//W3C//DTD SVG 1.1//EN" "http://www.w3.org/Graphics/SVG/1.1/DTD/svg11.dtd"><svg t="1668083277295" class="icon" viewBox="0 0 1024 1024" version="1.1" xmlns="http://www.w3.org/2000/svg" p-id="29487" xmlns:xlink="http://www.w3.org/1999/xlink" width="64" height="64"><path d="M802.986 199.956c17.234 16.07 18.177 43.069 2.106 60.303-16.07 17.234-43.07 18.176-60.303 2.106C606.919 133.799 390.93 141.34 262.365 279.21 133.799 417.081 141.34 633.07 279.21 761.635 417.081 890.201 633.07 882.66 761.635 744.79c91.374-97.986 116.156-238.752 66.87-360.835-8.822-21.85 1.74-46.715 23.592-55.537 21.85-8.82 46.715 1.742 55.536 23.592 61.586 152.55 30.607 328.517-83.589 450.977-160.707 172.337-430.693 181.765-603.03 21.058s-181.765-430.693-21.058-603.03 430.693-181.765 603.03-21.058z m-89.353 377.933c21.21 10.268 30.08 35.785 19.812 56.994-10.268 21.21-35.786 30.08-56.995 19.812L503.283 570.86a42.667 42.667 0 0 1-24.075-38.403V312.625c0-23.564 19.103-42.667 42.667-42.667s42.667 19.103 42.667 42.667V505.71l149.091 72.179z" p-id="29488" fill="#ffffff"></path></svg>