<?xml version="1.0" standalone="no"?><!DOCTYPE svg PUBLIC "-//W3C//DTD SVG 1.1//EN" "http://www.w3.org/Graphics/SVG/1.1/DTD/svg11.dtd"><svg t="1672476295634" class="icon" viewBox="0 0 1024 1024" version="1.1" xmlns="http://www.w3.org/2000/svg" p-id="3039" xmlns:xlink="http://www.w3.org/1999/xlink" width="64" height="64"><path d="M758.9 186.5h-169c0-42.4-34.4-76.8-76.8-76.8s-76.8 34.4-76.8 76.8h-169c-25.5 0-46.1 20.6-46.1 46.1s20.6 46.1 46.1 46.1L294 774.6c2.3 40.7 36 72.7 76.8 72.7h284.6c40.9 0 74.5-32 76.8-72.7l26.7-495.9c25.5 0 46.1-20.6 46.1-46.1s-20.6-46.1-46.1-46.1z m-292 507.1c0 16.9-13.8 30.7-30.7 30.7s-30.7-13.8-30.7-30.7V386.3c0-16.9 13.8-30.7 30.7-30.7s30.7 13.8 30.7 30.7v307.3z m153.7 0c0 16.9-13.8 30.7-30.7 30.7s-30.7-13.8-30.7-30.7V386.3c0-16.9 13.8-30.7 30.7-30.7s30.7 13.8 30.7 30.7v307.3z"  p-id="3040"></path></svg>
