<svg viewBox="0 0 1200 1200" xmlns:xlink="http://www.w3.org/1999/xlink" xmlns="http://www.w3.org/2000/svg"><defs><style>.cls-1{fill:none;}.cls-2{opacity:0.17;fill:url(#未命名的渐变_33);}.cls-12,.cls-3,.cls-4,.cls-5,.cls-6,.cls-7{opacity:0.3;}.cls-3{fill:url(#未命名的渐变_33-2);}.cls-4{fill:url(#未命名的渐变_33-3);}.cls-5{fill:url(#未命名的渐变_33-4);}.cls-6{fill:url(#未命名的渐变_162);}.cls-7{fill:url(#未命名的渐变_162-2);}.cls-8{fill:url(#未命名的渐变_69);}.cls-9{fill:#fff;}.cls-10{opacity:0.5;fill:url(#未命名的渐变_156);}.cls-11{fill:#c4f2e2;}.cls-12{fill:url(#未命名的渐变_33-5);}</style><linearGradient gradientUnits="userSpaceOnUse" y2="784.74" x2="600" y1="1083.98" x1="600" id="未命名的渐变_33"><stop stop-opacity="0" stop-color="#fff" offset="0"></stop><stop stop-color="#4be2ac" offset="0.77"></stop></linearGradient><linearGradient xlink:href="#未命名的渐变_33" y2="196.22" x2="937.3" y1="359.14" x1="937.3" id="未命名的渐变_33-2"></linearGradient><linearGradient xlink:href="#未命名的渐变_33" y2="402.37" x2="212.46" y1="565.29" x1="212.46" id="未命名的渐变_33-3"></linearGradient><linearGradient xlink:href="#未命名的渐变_33" y2="568.61" x2="1019.76" y1="665.04" x1="1019.76" id="未命名的渐变_33-4"></linearGradient><linearGradient gradientUnits="userSpaceOnUse" y2="332.54" x2="1112.04" y1="372.44" x1="1112.04" id="未命名的渐变_162"><stop stop-opacity="0.4" stop-color="#6de7bb" offset="0"></stop><stop stop-color="#55e2ac" offset="0.77"></stop></linearGradient><linearGradient xlink:href="#未命名的渐变_162" y2="199.54" x2="290.78" y1="266.04" x1="290.78" id="未命名的渐变_162-2"></linearGradient><linearGradient gradientUnits="userSpaceOnUse" y2="815.29" x2="592.41" y1="884.49" x1="592.41" id="未命名的渐变_69"><stop stop-opacity="0.02" stop-color="#009eaa" offset="0"></stop><stop stop-opacity="0.2" stop-color="#004c55" offset="0.77"></stop></linearGradient><linearGradient gradientUnits="userSpaceOnUse" y2="847.16" x2="773.81" y1="352.49" x1="773.81" id="未命名的渐变_156"><stop stop-opacity="0.62" stop-color="#6de7bb" offset="0"></stop><stop stop-color="#55e2ac" offset="0.77"></stop></linearGradient><linearGradient xlink:href="#未命名的渐变_33" y2="353.32" x2="603.65" y1="847.16" x1="603.65" id="未命名的渐变_33-5"></linearGradient></defs><g id="图层_1"><path d="M759.82,883.26V854a27,27,0,0,0-.32-3.95V887.2A27,27,0,0,0,759.82,883.26Z" class="cls-1"></path><path d="M865.07,870v-42.1a39.47,39.47,0,0,0-.46-5.69v53.48A39.47,39.47,0,0,0,865.07,870Z" class="cls-1"></path><path d="M1200,1084c-21.36-167.17-281.8-299.24-600-299.24S21.36,916.81,0,1084Z" class="cls-2"></path><path d="M1002.47,359.14a58.65,58.65,0,0,0,0-117.3c-1.1,0-2.13.26-3.22.32a64.75,64.75,0,0,0-123.91,0c-1.08-.06-2.11-.32-3.21-.32a58.65,58.65,0,1,0,0,117.3Z" class="cls-3"></path><path d="M277.63,565.29a58.66,58.66,0,0,0,0-117.31c-1.1,0-2.13.27-3.22.33a64.75,64.75,0,0,0-123.91,0c-1.08-.06-2.11-.33-3.21-.33a58.66,58.66,0,0,0,0,117.31Z" class="cls-4"></path><path d="M1058.33,665a34.72,34.72,0,0,0,0-69.43c-.65,0-1.26.16-1.91.19a38.32,38.32,0,0,0-73.33,0c-.64,0-1.25-.19-1.9-.19a34.72,34.72,0,0,0,0,69.43Z" class="cls-5"></path><circle r="19.95" cy="352.49" cx="1112.04" class="cls-6"></circle><circle r="33.25" cy="232.79" cx="290.78" class="cls-7"></circle><ellipse ry="34.6" rx="211.86" cy="849.89" cx="592.41" class="cls-8"></ellipse><path d="M746.07,352.49H724.2a77.33,77.33,0,0,1,77.34,77.34v17.29a23.09,23.09,0,0,1,.26,3.24v24a23.09,23.09,0,0,1-.26,3.24v64.68a23.11,23.11,0,0,1,.26,3.25v24a23.35,23.35,0,0,1-.26,3.25v64.68a23.09,23.09,0,0,1,.26,3.24v24a23.11,23.11,0,0,1-.26,3.25V732.7a23.11,23.11,0,0,1,.26,3.25v24a23.09,23.09,0,0,1-.26,3.24v6.62a77.33,77.33,0,0,1-77.34,77.33h21.87a77.33,77.33,0,0,0,77.34-77.33v-340A77.33,77.33,0,0,0,746.07,352.49Z" class="cls-9"></path><path d="M746.07,352.49H724.2a77.33,77.33,0,0,1,77.34,77.34v17.29a23.09,23.09,0,0,1,.26,3.24v24a23.09,23.09,0,0,1-.26,3.24v64.68a23.11,23.11,0,0,1,.26,3.25v24a23.35,23.35,0,0,1-.26,3.25v64.68a23.09,23.09,0,0,1,.26,3.24v24a23.11,23.11,0,0,1-.26,3.25V732.7a23.11,23.11,0,0,1,.26,3.25v24a23.09,23.09,0,0,1-.26,3.24v6.62a77.33,77.33,0,0,1-77.34,77.33h21.87a77.33,77.33,0,0,0,77.34-77.33v-340A77.33,77.33,0,0,0,746.07,352.49Z" class="cls-10"></path><path d="M726.94,352.49H461.18a77.33,77.33,0,0,0-77.34,77.34v340a77.33,77.33,0,0,0,77.34,77.33H726.94a77.33,77.33,0,0,0,77.33-77.33v-340A77.33,77.33,0,0,0,726.94,352.49ZM448.15,760a22.24,22.24,0,1,1-44.48,0V736a22.24,22.24,0,1,1,44.48,0Zm0-95.2a22.24,22.24,0,1,1-44.48,0v-24a22.24,22.24,0,1,1,44.48,0Zm0-95.19a22.24,22.24,0,1,1-44.48,0v-24a22.24,22.24,0,1,1,44.48,0Zm0-95.19a22.24,22.24,0,1,1-44.48,0v-24a22.24,22.24,0,1,1,44.48,0ZM652.63,628.07H617.85v34.78a23.8,23.8,0,0,1-47.59,0V628.07H535.49a23.8,23.8,0,1,1,0-47.59h34.77V545.71a23.8,23.8,0,1,1,47.59,0v34.77h34.78a23.8,23.8,0,0,1,0,47.59Zm130,131.9a22.25,22.25,0,0,1-44.49,0V736a22.25,22.25,0,1,1,44.49,0Zm0-95.2a22.25,22.25,0,0,1-44.49,0v-24a22.25,22.25,0,0,1,44.49,0Zm0-95.19a22.25,22.25,0,0,1-44.49,0v-24a22.25,22.25,0,0,1,44.49,0Zm0-95.19a22.25,22.25,0,0,1-44.49,0v-24a22.25,22.25,0,0,1,44.49,0Z" class="cls-11"></path><path d="M738.2,353.32,611.69,529.77a23.67,23.67,0,0,1,6.16,15.94v34.77h34.78a23.8,23.8,0,0,1,0,47.59H617.85v34.78a23.8,23.8,0,0,1-47.59,0V628.07h-29L448.15,757.86V760a22.22,22.22,0,0,1-17,21.59L403,820.79a77.14,77.14,0,0,0,58.15,26.37H726.94a77.33,77.33,0,0,0,77.33-77.33v-340A77.33,77.33,0,0,0,738.2,353.32ZM782.67,760a22.25,22.25,0,0,1-44.49,0V736a22.25,22.25,0,1,1,44.49,0Zm0-95.2a22.25,22.25,0,0,1-44.49,0v-24a22.25,22.25,0,0,1,44.49,0Zm0-95.19a22.25,22.25,0,0,1-44.49,0v-24a22.25,22.25,0,0,1,44.49,0Zm0-95.19a22.25,22.25,0,0,1-44.49,0v-24a22.25,22.25,0,0,1,44.49,0Z" class="cls-12"></path></g></svg>