<?xml version="1.0" standalone="no"?><!DOCTYPE svg PUBLIC "-//W3C//DTD SVG 1.1//EN" "http://www.w3.org/Graphics/SVG/1.1/DTD/svg11.dtd"><svg t="1675751995585" class="icon" viewBox="0 0 1078 1024" version="1.1" xmlns="http://www.w3.org/2000/svg" p-id="3322" xmlns:xlink="http://www.w3.org/1999/xlink" width="210.546875" height="200"><path d="M271.36251 14.176036A65.078332 65.078332 0 0 1 316.975448 0.230679a151.946284 151.946284 0 0 1 61.010936 18.884338 431.434478 431.434478 0 0 1 85.124783 61.882521 903.542913 903.542913 0 0 1 83.672141 87.15848 866.355295 866.355295 0 0 1 89.773235-93.550102A385.82154 385.82154 0 0 1 726.620306 13.59498 119.407118 119.407118 0 0 1 789.374412 0.230679a61.591993 61.591993 0 0 1 42.126598 25.857016 132.48089 132.48089 0 0 1 20.336979 64.206747 402.962707 402.962707 0 0 1-6.101093 100.232253 1031.665879 1031.665879 0 0 1-67.693087 219.348842 885.239632 885.239632 0 0 1 141.196738 35.734977 409.644858 409.644858 0 0 1 92.387989 44.450825 153.979982 153.979982 0 0 1 43.288712 41.83607 70.017313 70.017313 0 0 1 11.911659 43.579241 77.280519 77.280519 0 0 1-16.269583 40.092901A271.64393 271.64393 0 0 0 1017.148574 581.287215a20.04645 20.04645 0 0 0 0-20.336979 103.137535 103.137535 0 0 0-34.863393-33.991807 425.623912 425.623912 0 0 0-105.752289-46.193995 878.266953 878.266953 0 0 0-119.988175-27.309657c-4.067396 9.296905-8.42532 18.303281-13.073772 27.600186 7.553735 16.269583 15.397998 32.539166 22.661205 49.099277a264.671252 264.671252 0 0 0-41.83607 17.722224c-2.324226-5.229509-4.648452-10.168489-6.972679-15.397998-4.067396 8.134791-8.715848 15.979055-13.073772 24.113846a15.10747 15.10747 0 0 1-4.357924 5.810566 268.448119 268.448119 0 0 0-78.73316 83.381612 275.13027 275.13027 0 0 0-36.606562 104.00912H581.356172l-6.391622 8.134792 9.877961 11.911659a280.359778 280.359778 0 0 0 5.520037 74.665765c-15.397998-16.269583-29.052827-32.829694-44.741353-49.970862a877.685897 877.685897 0 0 1-91.225876 94.421687 384.659427 384.659427 0 0 1-87.15848 60.429879 122.021872 122.021872 0 0 1-62.463578 13.073772A61.010936 61.010936 0 0 1 261.775077 941.542267a112.143911 112.143911 0 0 1-21.78962-54.038258 319.581095 319.581095 0 0 1 0-87.15848 693.781503 693.781503 0 0 1 13.945357-76.408935 735.617574 735.617574 0 0 1-141.777795-42.707655A281.231363 281.231363 0 0 1 29.352463 629.805436a89.192178 89.192178 0 0 1-29.052827-51.714032 70.307841 70.307841 0 0 1 13.654829-48.518221 171.411678 171.411678 0 0 1 51.132975-45.322409 467.750511 467.750511 0 0 1 102.556479-44.741354A960.486453 960.486453 0 0 1 311.745939 406.970254a1212.955518 1212.955518 0 0 1-42.417127-116.211307 692.328862 692.328862 0 0 1-29.052826-151.946284 257.117517 257.117517 0 0 1 4.93898-74.956293 89.773235 89.773235 0 0 1 26.147544-49.680334m29.052827 35.153921a35.734977 35.734977 0 0 0-11.911659 19.465394 193.201298 193.201298 0 0 0-5.520037 64.206747 629.574756 629.574756 0 0 0 26.147544 135.967229 1185.355333 1185.355333 0 0 0 47.937164 131.318777l31.377053-3.195811c10.168489-17.431696 20.04645-35.15392 30.795996-52.295088A1505.808012 1505.808012 0 0 1 515.987312 203.600467a951.189549 951.189549 0 0 0-58.105654-64.787804 530.214089 530.214089 0 0 0-76.989991-63.335162 189.714959 189.714959 0 0 0-54.909842-27.019129 35.15392 35.15392 0 0 0-24.694903 0m463.392587 0a187.681261 187.681261 0 0 0-53.74773 26.147544A451.771456 451.771456 0 0 0 659.798804 116.441987a832.363487 832.363487 0 0 0-84.834254 87.15848 1544.448271 1544.448271 0 0 1 126.670325 193.201298 3.195811 3.195811 0 0 0 3.195811 2.033698l26.438072 3.195811A1185.645861 1185.645861 0 0 0 774.266942 290.758947a711.503728 711.503728 0 0 0 31.958109-145.264134 223.416238 223.416238 0 0 0-3.486339-74.375236 39.511844 39.511844 0 0 0-12.492716-22.080149 35.15392 35.15392 0 0 0-25.566487 0m-219.348842 192.91077a1529.63133 1529.63133 0 0 0-100.522781 150.784171 1572.920042 1572.920042 0 0 1 203.369788 1.452642 1436.371756 1436.371756 0 0 0-101.684894-152.527341m-106.042818 197.84975a189.714959 189.714959 0 0 0-22.080148 2.033698c-7.553735 13.073772-14.235885 26.728601-21.208564 40.092901a1560.717854 1560.717854 0 0 0 136.257758 223.12571h25.857016a1558.1031 1558.1031 0 0 0 135.967229-222.835182c-6.101094-13.073772-13.073772-26.147544-20.046451-38.640259a1529.340802 1529.340802 0 0 0-235.037368-3.486339m-260.313328 44.741353a448.866174 448.866174 0 0 0-83.96267 35.734977 166.472697 166.472697 0 0 0-37.478146 29.052827 44.450825 44.450825 0 0 0-11.330603 18.593809 22.370677 22.370677 0 0 0 4.648453 16.850639 107.204931 107.204931 0 0 0 25.566487 24.694903 281.81242 281.81242 0 0 0 49.099278 27.600185 693.200447 693.200447 0 0 0 141.777794 43.288712 1341.950069 1341.950069 0 0 1 78.152104-198.430807c-5.229509-10.168489-9.877961-20.627507-14.816941-31.086524a936.082079 936.082079 0 0 0-151.0747 33.701279m132.48089 203.369787a1392.211459 1392.211459 0 0 0 163.276887 15.688527 1613.303471 1613.303471 0 0 1-104.00912-170.540093 1185.064804 1185.064804 0 0 0-58.105653 154.851566m-12.492716 45.031882a613.595702 613.595702 0 0 0-13.654829 73.79418A296.338833 296.338833 0 0 0 285.017339 871.815483a103.137535 103.137535 0 0 0 7.844263 31.086524 20.918035 20.918035 0 0 0 12.783244 12.492716 46.193995 46.193995 0 0 0 21.499092 0 192.91077 192.91077 0 0 0 53.457201-26.438072 475.594774 475.594774 0 0 0 53.747729-42.707656 857.05839 857.05839 0 0 0 81.638444-87.15848c-2.614754-2.614754-4.067396-8.134791-8.42532-7.844263a1435.790699 1435.790699 0 0 1-207.727712-18.012753z" fill="#03E0F4" p-id="3323"></path><path d="M1072.058416 741.368291A234.165784 234.165784 0 0 0 995.068425 610.340042a224.578351 224.578351 0 0 0-237.942651-35.444449 230.098388 230.098388 0 0 0-97.617498 82.510028 237.942651 237.942651 0 0 0 50.842447 319.581095 226.030992 226.030992 0 0 0 127.541909 46.775051 223.416238 223.416238 0 0 0 132.771419-36.316034 232.422614 232.422614 0 0 0 85.41531-99.941724 241.138462 241.138462 0 0 0 15.979055-146.135718z m-47.356107 97.617498a189.424431 189.424431 0 0 1-60.720408 95.002743 180.127526 180.127526 0 0 1-248.401669-15.688526 192.91077 192.91077 0 0 1-39.511845-64.206748 195.816052 195.816052 0 0 1-2.324226-124.346098 187.681261 187.681261 0 0 1 70.017313-95.5838 178.674885 178.674885 0 0 1 110.981798-33.410751 182.161224 182.161224 0 0 1 113.596553 45.903466 191.1676 191.1676 0 0 1 56.362484 192.329714z" fill="#03E0F4" p-id="3324"></path><path d="M923.307943 724.517651a79.604745 79.604745 0 0 1-9.587433 38.64026 100.522781 100.522781 0 0 1-25.857016 30.795996 81.347915 81.347915 0 0 0-22.661204 25.857016 50.842447 50.842447 0 0 0-6.391622 17.722224v11.330603h-29.052827v-16.269583a59.848823 59.848823 0 0 1 7.263207-29.052827 116.211307 116.211307 0 0 1 24.985431-29.052827 60.42988 60.42988 0 0 0 22.661204-47.937164 45.031882 45.031882 0 0 0-9.877961-29.052827 35.444449 35.444449 0 0 0-27.600185-10.459018 38.349731 38.349731 0 0 0-29.052827 13.654829 66.530973 66.530973 0 0 0-12.202187 44.450825h-37.768675a94.131159 94.131159 0 0 1 24.113846-67.11203 76.118406 76.118406 0 0 1 54.909843-21.78962 77.280519 77.280519 0 0 1 55.781427 19.465394 66.240445 66.240445 0 0 1 20.336979 48.808749z m-56.653012 189.133902a22.080148 22.080148 0 1 1-6.391622-16.269583 21.78962 21.78962 0 0 1 6.68215 16.269583z" fill="#03E0F4" p-id="3325"></path></svg>