<?xml version="1.0" standalone="no"?><!DOCTYPE svg PUBLIC "-//W3C//DTD SVG 1.1//EN" "http://www.w3.org/Graphics/SVG/1.1/DTD/svg11.dtd"><svg t="1675768585585" class="icon" viewBox="0 0 1024 1024" version="1.1" xmlns="http://www.w3.org/2000/svg" p-id="3733" xmlns:xlink="http://www.w3.org/1999/xlink" width="200" height="200"><path d="M934.817125 234.730862L540.352567 6.528225a60.636701 60.636701 0 0 0-28.362328-6.520075 59.332686 59.332686 0 0 0-27.058312 6.520075L89.489357 234.730862A62.592723 62.592723 0 0 0 61.12703 283.631427v456.405274a62.266719 62.266719 0 0 0 28.362327 48.900565l394.464558 228.202637a55.746644 55.746644 0 0 0 28.036324 6.846079 57.050659 57.050659 0 0 0 28.362328-6.846079l394.464558-228.202637a62.592723 62.592723 0 0 0 28.036324-48.900565v-456.405274a63.244731 63.244731 0 0 0-28.036324-48.900565z m-37.16443 500.415782l-385.662456 222.986577L126.327783 735.146644V288.847488L511.990239 65.208903l385.662456 223.638585z" fill="" p-id="3734"></path><path d="M478.737855 122.259563a32.600377 32.600377 0 0 0-15.974185 4.238049L313.127941 210.28058 173.924333 295.367563A32.600377 32.600377 0 0 0 158.92816 322.751879v155.177793a32.600377 32.600377 0 0 0 32.600376 32.600377h289.165342a32.600377 32.600377 0 0 0 32.600376-32.600377V154.859939a32.600377 32.600377 0 0 0-34.556399-32.600376zM545.568627 895.866501a32.600377 32.600377 0 0 0 15.974185-4.238049l149.635729-83.456964 138.877604-85.086983a32.600377 32.600377 0 0 0 15.648181-27.71032l1.630019-154.851789a32.600377 32.600377 0 0 0-32.600377-32.600377h-289.165341a32.600377 32.600377 0 0 0-32.600377 32.600377v323.069733a32.600377 32.600377 0 0 0 32.600377 32.274372z" fill="" p-id="3735"></path></svg>