<?xml version="1.0" standalone="no"?><!DOCTYPE svg PUBLIC "-//W3C//DTD SVG 1.1//EN" "http://www.w3.org/Graphics/SVG/1.1/DTD/svg11.dtd"><svg t="1668775659485" class="icon" viewBox="0 0 1024 1024" version="1.1" xmlns="http://www.w3.org/2000/svg" p-id="3126" xmlns:xlink="http://www.w3.org/1999/xlink" width="64" height="64"><path d="M384 170.666667a149.333333 149.333333 0 0 1 47.189333 291.072l-4.522666 1.322666v27.605334a42.666667 42.666667 0 0 1-37.674667 42.368L384 533.333333a42.666667 42.666667 0 0 1-42.368-37.674666L341.333333 490.666667V426.666667a42.666667 42.666667 0 0 1 37.674667-42.368L384 384a64 64 0 1 0-63.701333-70.144L320 320a42.666667 42.666667 0 1 1-85.333333 0A149.333333 149.333333 0 0 1 384 170.666667zM384 576a42.666667 42.666667 0 0 1 42.368 37.674667L426.666667 618.666667v21.333333a42.666667 42.666667 0 0 1-85.034667 4.992L341.333333 640v-21.333333a42.666667 42.666667 0 0 1 42.666667-42.666667z" p-id="3127"></path><path d="M682.666667 0a42.666667 42.666667 0 0 1 25.941333 8.789333l4.266667 3.712 207.061333 207.061334a64 64 0 0 1 18.432 38.954666l0.298667 6.314667V469.333333a42.666667 42.666667 0 0 1-85.034667 4.992L853.333333 469.333333V273.664L664.96 85.333333H170.666667v853.333334h341.333333a42.666667 42.666667 0 0 1 42.368 37.674666L554.666667 981.333333a42.666667 42.666667 0 0 1-37.674667 42.368L512 1024H149.333333a64 64 0 0 1-63.701333-57.856L85.333333 960v-896A64 64 0 0 1 143.189333 0.298667L149.333333 0H682.666667z" p-id="3128"></path><path d="M746.666667 810.666667m-64 0a64 64 0 1 0 128 0 64 64 0 1 0-128 0Z" p-id="3129"></path><path d="M867.626667 597.333333h-241.92L505.728 810.666667l119.978667 213.333333h241.92l119.978666-213.333333-119.978666-213.333334z m-49.92 85.333334l71.978666 128-72.021333 128H675.626667L603.605333 810.666667l71.978667-128h142.122667z" p-id="3130"></path></svg>