<?xml version="1.0" standalone="no"?><!DOCTYPE svg PUBLIC "-//W3C//DTD SVG 1.1//EN" "http://www.w3.org/Graphics/SVG/1.1/DTD/svg11.dtd"><svg t="1672376217342" class="icon" viewBox="0 0 1024 1024" version="1.1" xmlns="http://www.w3.org/2000/svg" p-id="4249" xmlns:xlink="http://www.w3.org/1999/xlink" width="64" height="64"><path d="M526.336 644.096c123.904 0 223.744-97.28 223.744-221.184V238.08c0-123.904-99.84-221.184-223.744-221.184s-223.744 97.28-223.744 221.184v184.832c0 123.904 97.28 221.184 223.744 221.184z m350.208-267.264c0-22.016-19.456-41.472-44.032-41.472s-41.472 19.456-41.472 41.472c0 4.608 0 9.728 2.56 12.288v31.744c0 143.36-119.296 262.656-267.776 262.656-145.92 0-267.776-119.296-267.776-262.656V384c0-2.56 2.56-4.608 2.56-9.728 0-22.016-19.456-41.472-41.472-41.472-24.576 0-41.472 19.456-41.472 41.472V435.2c0 177.664 133.632 318.464 304.128 343.04v82.944H365.568c-24.576 0-44.032 19.456-44.032 44.032s19.456 41.472 44.032 41.472h316.416c26.624 0 41.472-16.896 41.472-41.472 0-22.016-16.896-44.032-41.472-44.032h-116.736V778.24c175.104-19.456 311.296-165.376 311.296-343.04V376.832z" p-id="4250"></path></svg>