<?xml version="1.0" standalone="no"?><!DOCTYPE svg PUBLIC "-//W3C//DTD SVG 1.1//EN" "http://www.w3.org/Graphics/SVG/1.1/DTD/svg11.dtd"><svg t="1668668484044" class="icon" viewBox="0 0 1024 1024" version="1.1" xmlns="http://www.w3.org/2000/svg" p-id="17591" xmlns:xlink="http://www.w3.org/1999/xlink" width="64" height="64"><path d="M314.88 135.04h390.08c2.56 0 4.48-1.92 4.48-4.48V36.48c0-2.56-2.24-4.48-4.48-4.48H314.88c-2.56 0-4.48 1.92-4.48 4.48v93.76c0 2.56 1.92 4.8 4.48 4.8zM538.24 369.6H470.4c-2.56 0-4.48 1.92-4.48 4.48v242.24c0 2.56 1.92 4.48 4.48 4.48h68.16c2.56 0 4.48-1.92 4.48-4.48v-242.24c-0.32-2.56-2.24-4.48-4.8-4.48z" fill="#06A8F5" p-id="17592"></path><path d="M897.92 229.44l-46.08-46.08a10.4 10.4 0 0 0-7.68-3.2 9.92 9.92 0 0 0-7.68 3.2l-86.08 86.08a391.456 391.456 0 0 0-251.2-90.88c-216.96 0-392.64 176-392.64 392.64s176 392.64 392.64 392.64 392.64-176 392.64-392.64c0-89.92-30.4-172.8-81.28-239.04l87.36-87.36c4.16-4.16 4.16-11.2 0-15.36zM498.88 889.92c-175.68 0-318.72-143.04-318.72-318.72s143.04-318.72 318.72-318.72c175.68 0 318.72 143.04 318.72 318.72s-143.04 318.72-318.72 318.72z" fill="#06A8F5" p-id="17593"></path></svg>